<svg width="148" height="148" viewBox="0 0 148 148" fill="none" xmlns="http://www.w3.org/2000/svg">
<g filter="url(#filter0_d_55_1565)">
<path fill-rule="evenodd" clip-rule="evenodd" d="M74 108C46.3858 108 24 85.6142 24 58C24 30.3858 46.3858 8 74 8C101.614 8 124 30.3858 124 58V100C124 104.418 120.418 108 116 108H74Z" fill="#387C6D"/>
</g>
<path fill-rule="evenodd" clip-rule="evenodd" d="M97.588 79.5995L91.9355 73.9467C95.8555 69.5488 98 63.9396 98 58C98 53.3795 96.7 48.9396 94.2306 45.0837L97.588 41.7263C97.9326 41.3813 98.0743 40.8829 97.9623 40.4087C97.8502 39.9344 97.5009 39.5518 97.0383 39.3979L93.7117 38.2887L92.6028 34.9617C92.4482 34.4995 92.0659 34.1498 91.5917 34.0377C91.1174 33.926 90.619 34.0674 90.274 34.412L86.9166 37.7698C83.0604 35.3004 78.6201 34 74 34C67.5895 34 61.5624 36.4965 57.0294 41.0294C52.4965 45.5624 50 51.5895 50 58C50 63.9396 52.1445 69.5488 56.0648 73.9467L50.412 79.5995C49.8627 80.1484 49.8627 81.0391 50.412 81.588C50.6866 81.8627 51.0463 82 51.4062 82C51.7662 82 52.1262 81.8627 52.4005 81.588L58.0533 75.9352C62.4512 79.8558 68.0604 82 74 82C79.9396 82 85.5488 79.8555 89.9467 75.9352L95.5995 81.588C95.8741 81.8627 96.2338 82 96.5938 82C96.9537 82 97.3137 81.8627 97.588 81.588C98.1373 81.0391 98.1373 80.1488 97.588 79.5995ZM90.6539 38.0098L91.2655 39.8448C91.4054 40.2649 91.735 40.5945 92.1547 40.7344L93.9901 41.3463L90.8883 44.4481L88.386 43.6139L87.5518 41.1116L90.6539 38.0098ZM74 64.1249C77.3772 64.1249 80.1252 61.3772 80.1252 58C80.1252 56.8197 79.7887 55.717 79.2079 54.781L74.9943 58.9943C74.72 59.2689 74.36 59.4062 74 59.4062C73.64 59.4062 73.28 59.2689 73.0057 58.9943C72.4564 58.4453 72.4564 57.5551 73.0057 57.0057L77.219 52.7921C76.283 52.2113 75.1803 51.8751 74 51.8751C70.6228 51.8751 67.8751 54.6228 67.8751 58C67.8751 61.3772 70.6228 64.1249 74 64.1249ZM79.2439 50.7675C77.7699 49.6959 75.9575 49.0627 73.9998 49.0627C69.0717 49.0627 65.0624 53.072 65.0624 58.0001C65.0624 62.9282 69.0717 66.9375 73.9998 66.9375C78.9279 66.9375 82.9375 62.9282 82.9375 58.0001C82.9375 56.0424 82.3043 54.2303 81.2324 52.756L84.5946 49.3942C86.5073 51.7445 87.6561 54.7405 87.6561 58.0001C87.6561 65.5302 81.5298 71.6565 73.9998 71.6565C66.4697 71.6565 60.3438 65.5302 60.3438 58.0001C60.3438 50.4701 66.4697 44.3438 73.9998 44.3438C77.2594 44.3438 80.2554 45.4926 82.6061 47.4053L79.2439 50.7675ZM74 36.8125C62.3171 36.8125 52.8125 46.3171 52.8125 58C52.8125 69.6829 62.3171 79.1875 74 79.1875C85.6829 79.1875 95.1875 69.6829 95.1875 58C95.1875 54.1281 94.1544 50.4 92.186 47.121C91.9279 47.3436 91.6016 47.4634 91.2683 47.4634C91.1193 47.4634 90.9695 47.4396 90.8237 47.3912L87.6542 46.3344L86.5911 47.3975C89.0092 50.2645 90.4689 53.9647 90.4689 58C90.4689 67.0809 83.0809 74.4689 74 74.4689C64.9191 74.4689 57.5315 67.0809 57.5315 58C57.5315 48.9191 64.9191 41.5311 74 41.5311C78.0353 41.5311 81.7355 42.9908 84.6025 45.4089L85.6656 44.3458L84.6088 41.1766C84.4513 40.7042 84.556 40.1868 84.8779 39.8136C81.5992 37.8456 77.8716 36.8125 74 36.8125Z" fill="white"/>
<defs>
<filter id="filter0_d_55_1565" x="0" y="0" width="148" height="148" filterUnits="userSpaceOnUse" color-interpolation-filters="sRGB">
<feFlood flood-opacity="0" result="BackgroundImageFix"/>
<feColorMatrix in="SourceAlpha" type="matrix" values="0 0 0 0 0 0 0 0 0 0 0 0 0 0 0 0 0 0 127 0" result="hardAlpha"/>
<feOffset dy="16"/>
<feGaussianBlur stdDeviation="12"/>
<feColorMatrix type="matrix" values="0 0 0 0 0.303864 0 0 0 0 0.234804 0 0 0 0 0 0 0 0 0.16109 0"/>
<feBlend mode="normal" in2="BackgroundImageFix" result="effect1_dropShadow_55_1565"/>
<feBlend mode="normal" in="SourceGraphic" in2="effect1_dropShadow_55_1565" result="shape"/>
</filter>
</defs>
</svg>
